<mxfile host="app.diagrams.net" modified="2020-09-18T02:38:58.327Z" agent="5.0 (Macintosh; Intel Mac OS X 10_15_6) AppleWebKit/537.36 (KHTML, like Gecko) Chrome/85.0.4183.102 Safari/537.36" etag="LnOzRHNhJXQmgsE33gY8" version="13.7.2" type="github">
  <diagram id="GOthCZEwMYfaKD7zuhJA" name="Page-1">
    <mxGraphModel dx="946" dy="1413" grid="0" gridSize="10" guides="1" tooltips="1" connect="1" arrows="1" fold="1" page="0" pageScale="1" pageWidth="1654" pageHeight="2336" math="0" shadow="0">
      <root>
        <mxCell id="0" />
        <mxCell id="1" parent="0" />
        <mxCell id="z8ZQqWnIRA7dxp7ImyTA-6" style="edgeStyle=orthogonalEdgeStyle;rounded=0;orthogonalLoop=1;jettySize=auto;html=1;entryX=0.5;entryY=0;entryDx=0;entryDy=0;strokeColor=#FFCCCC;fillColor=#FFCCCC;" parent="1" source="RX_EerJ2v2z5Nm2OWKS_-1" target="z8ZQqWnIRA7dxp7ImyTA-4" edge="1">
          <mxGeometry relative="1" as="geometry" />
        </mxCell>
        <mxCell id="RX_EerJ2v2z5Nm2OWKS_-1" value="publish_item" style="rounded=0;whiteSpace=wrap;html=1;fillColor=#f8cecc;strokeColor=#FFCCCC;" parent="1" vertex="1">
          <mxGeometry x="80" y="-440" width="120" height="40" as="geometry" />
        </mxCell>
        <mxCell id="z8ZQqWnIRA7dxp7ImyTA-15" style="edgeStyle=orthogonalEdgeStyle;rounded=0;orthogonalLoop=1;jettySize=auto;html=1;entryX=0.5;entryY=0;entryDx=0;entryDy=0;strokeColor=#A9C4EB;fillColor=#D4E1F5;" parent="1" source="RX_EerJ2v2z5Nm2OWKS_-3" target="z8ZQqWnIRA7dxp7ImyTA-13" edge="1">
          <mxGeometry relative="1" as="geometry" />
        </mxCell>
        <mxCell id="RX_EerJ2v2z5Nm2OWKS_-3" value="vcloud_transcoder" style="rounded=0;whiteSpace=wrap;html=1;fillColor=#D4E1F5;strokeColor=#A9C4EB;" parent="1" vertex="1">
          <mxGeometry x="80" y="-90" width="120" height="40.5" as="geometry" />
        </mxCell>
        <mxCell id="z8ZQqWnIRA7dxp7ImyTA-40" style="edgeStyle=orthogonalEdgeStyle;rounded=0;orthogonalLoop=1;jettySize=auto;html=1;entryX=0;entryY=0.5;entryDx=0;entryDy=0;strokeColor=#B9E0A5;fillColor=#B9E0A5;" parent="1" source="RX_EerJ2v2z5Nm2OWKS_-27" edge="1">
          <mxGeometry relative="1" as="geometry">
            <mxPoint x="440" y="-240" as="targetPoint" />
          </mxGeometry>
        </mxCell>
        <mxCell id="RX_EerJ2v2z5Nm2OWKS_-27" value="async_retry" style="rounded=0;whiteSpace=wrap;html=1;fillColor=#B9E0A5;strokeColor=#B9E0A5;" parent="1" vertex="1">
          <mxGeometry x="280" y="-260" width="120" height="40" as="geometry" />
        </mxCell>
        <mxCell id="RX_EerJ2v2z5Nm2OWKS_-60" value="转码重试消息" style="rounded=0;whiteSpace=wrap;html=1;fillColor=#FFF4C3;strokeColor=#FFF4C3;" parent="1" vertex="1">
          <mxGeometry x="340" y="10" width="130" height="20" as="geometry" />
        </mxCell>
        <mxCell id="z8ZQqWnIRA7dxp7ImyTA-7" style="edgeStyle=orthogonalEdgeStyle;rounded=0;orthogonalLoop=1;jettySize=auto;html=1;entryX=0.5;entryY=0;entryDx=0;entryDy=0;strokeColor=#FFCCCC;fillColor=#FFCCCC;" parent="1" source="z8ZQqWnIRA7dxp7ImyTA-4" target="z8ZQqWnIRA7dxp7ImyTA-5" edge="1">
          <mxGeometry relative="1" as="geometry" />
        </mxCell>
        <mxCell id="z8ZQqWnIRA7dxp7ImyTA-4" value="触发转码" style="rounded=0;whiteSpace=wrap;html=1;fillColor=#FFCCCC;strokeColor=#FFCCCC;" parent="1" vertex="1">
          <mxGeometry x="80" y="-360" width="120" height="40" as="geometry" />
        </mxCell>
        <mxCell id="z8ZQqWnIRA7dxp7ImyTA-11" style="edgeStyle=orthogonalEdgeStyle;rounded=0;orthogonalLoop=1;jettySize=auto;html=1;entryX=0;entryY=0.5;entryDx=0;entryDy=0;fillColor=#FFCCCC;strokeColor=#FFCCCC;" parent="1" source="z8ZQqWnIRA7dxp7ImyTA-5" target="RX_EerJ2v2z5Nm2OWKS_-27" edge="1">
          <mxGeometry relative="1" as="geometry" />
        </mxCell>
        <mxCell id="z8ZQqWnIRA7dxp7ImyTA-60" style="edgeStyle=orthogonalEdgeStyle;rounded=0;orthogonalLoop=1;jettySize=auto;html=1;entryX=0.5;entryY=0;entryDx=0;entryDy=0;strokeColor=#FFCCCC;" parent="1" source="z8ZQqWnIRA7dxp7ImyTA-5" target="z8ZQqWnIRA7dxp7ImyTA-59" edge="1">
          <mxGeometry relative="1" as="geometry" />
        </mxCell>
        <mxCell id="z8ZQqWnIRA7dxp7ImyTA-5" value="触发是否成功" style="rhombus;whiteSpace=wrap;html=1;strokeColor=#FFCCCC;fillColor=#FFCCCC;" parent="1" vertex="1">
          <mxGeometry x="80" y="-280" width="120" height="80" as="geometry" />
        </mxCell>
        <mxCell id="z8ZQqWnIRA7dxp7ImyTA-8" value="" style="endArrow=none;dashed=1;html=1;dashPattern=1 3;strokeWidth=2;entryX=0;entryY=0.5;entryDx=0;entryDy=0;exitX=0;exitY=0.5;exitDx=0;exitDy=0;strokeColor=#FFCCCC;" parent="1" source="RX_EerJ2v2z5Nm2OWKS_-3" target="z8ZQqWnIRA7dxp7ImyTA-4" edge="1">
          <mxGeometry width="50" height="50" relative="1" as="geometry">
            <mxPoint x="10" y="-220" as="sourcePoint" />
            <mxPoint x="60" y="-270" as="targetPoint" />
            <Array as="points">
              <mxPoint x="40" y="-70" />
              <mxPoint x="40" y="-340" />
            </Array>
          </mxGeometry>
        </mxCell>
        <mxCell id="z8ZQqWnIRA7dxp7ImyTA-12" value="否" style="text;html=1;align=center;verticalAlign=middle;resizable=0;points=[];autosize=1;fillColor=#FFCCCC;strokeColor=#FFCCCC;" parent="1" vertex="1">
          <mxGeometry x="200" y="-260" width="30" height="20" as="geometry" />
        </mxCell>
        <mxCell id="z8ZQqWnIRA7dxp7ImyTA-18" style="edgeStyle=orthogonalEdgeStyle;rounded=0;orthogonalLoop=1;jettySize=auto;html=1;entryX=0.5;entryY=0;entryDx=0;entryDy=0;fillColor=#FFB570;strokeColor=#FFB570;" parent="1" source="z8ZQqWnIRA7dxp7ImyTA-13" target="z8ZQqWnIRA7dxp7ImyTA-17" edge="1">
          <mxGeometry relative="1" as="geometry" />
        </mxCell>
        <mxCell id="z8ZQqWnIRA7dxp7ImyTA-13" value="transcode_sync" style="rounded=0;whiteSpace=wrap;html=1;fillColor=#FFB570;strokeColor=#FFB570;" parent="1" vertex="1">
          <mxGeometry x="80" width="120" height="40" as="geometry" />
        </mxCell>
        <mxCell id="z8ZQqWnIRA7dxp7ImyTA-16" value="转码结果消息" style="rounded=0;whiteSpace=wrap;html=1;fillColor=#D4E1F5;strokeColor=#A9C4EB;" parent="1" vertex="1">
          <mxGeometry x="140" y="-40" width="130" height="20" as="geometry" />
        </mxCell>
        <mxCell id="z8ZQqWnIRA7dxp7ImyTA-20" style="edgeStyle=orthogonalEdgeStyle;rounded=0;orthogonalLoop=1;jettySize=auto;html=1;entryX=0.5;entryY=0;entryDx=0;entryDy=0;exitX=0.5;exitY=1;exitDx=0;exitDy=0;fillColor=#FFB570;strokeColor=#FFB570;" parent="1" source="z8ZQqWnIRA7dxp7ImyTA-17" target="z8ZQqWnIRA7dxp7ImyTA-29" edge="1">
          <mxGeometry relative="1" as="geometry" />
        </mxCell>
        <mxCell id="z8ZQqWnIRA7dxp7ImyTA-30" style="edgeStyle=orthogonalEdgeStyle;rounded=0;orthogonalLoop=1;jettySize=auto;html=1;exitX=0.5;exitY=1;exitDx=0;exitDy=0;entryX=0.5;entryY=0;entryDx=0;entryDy=0;fillColor=#FFB570;strokeColor=#FFB570;" parent="1" source="z8ZQqWnIRA7dxp7ImyTA-17" target="z8ZQqWnIRA7dxp7ImyTA-19" edge="1">
          <mxGeometry relative="1" as="geometry" />
        </mxCell>
        <mxCell id="z8ZQqWnIRA7dxp7ImyTA-33" style="edgeStyle=orthogonalEdgeStyle;rounded=0;orthogonalLoop=1;jettySize=auto;html=1;entryX=0;entryY=0.5;entryDx=0;entryDy=0;fillColor=#FFB570;strokeColor=#FFB570;" parent="1" source="z8ZQqWnIRA7dxp7ImyTA-17" target="z8ZQqWnIRA7dxp7ImyTA-32" edge="1">
          <mxGeometry relative="1" as="geometry" />
        </mxCell>
        <mxCell id="z8ZQqWnIRA7dxp7ImyTA-17" value="转码是否成功" style="rhombus;whiteSpace=wrap;html=1;fillColor=#FFB570;strokeColor=#FFB570;" parent="1" vertex="1">
          <mxGeometry x="80" y="80" width="120" height="79" as="geometry" />
        </mxCell>
        <mxCell id="z8ZQqWnIRA7dxp7ImyTA-19" value="pipeline_callback" style="rounded=0;whiteSpace=wrap;html=1;fillColor=#D4E1F5;strokeColor=#A9C4EB;" parent="1" vertex="1">
          <mxGeometry x="80" y="200" width="120" height="40" as="geometry" />
        </mxCell>
        <mxCell id="z8ZQqWnIRA7dxp7ImyTA-21" value="是" style="text;html=1;align=center;verticalAlign=middle;resizable=0;points=[];autosize=1;fillColor=#FFB570;strokeColor=#FFF2CC;" parent="1" vertex="1">
          <mxGeometry x="141" y="159" width="30" height="20" as="geometry" />
        </mxCell>
        <mxCell id="z8ZQqWnIRA7dxp7ImyTA-23" value="否" style="text;html=1;align=center;verticalAlign=middle;resizable=0;points=[];autosize=1;fillColor=#FFB570;strokeColor=#FFB570;" parent="1" vertex="1">
          <mxGeometry x="200" y="99" width="30" height="20" as="geometry" />
        </mxCell>
        <mxCell id="z8ZQqWnIRA7dxp7ImyTA-26" value="" style="endArrow=none;dashed=1;html=1;dashPattern=1 3;strokeWidth=2;exitX=0;exitY=0.5;exitDx=0;exitDy=0;entryX=0;entryY=0.5;entryDx=0;entryDy=0;fillColor=#D4E1F5;strokeColor=#A9C4EB;" parent="1" source="z8ZQqWnIRA7dxp7ImyTA-19" target="RX_EerJ2v2z5Nm2OWKS_-1" edge="1">
          <mxGeometry width="50" height="50" relative="1" as="geometry">
            <mxPoint y="-10" as="sourcePoint" />
            <mxPoint x="50" y="-60" as="targetPoint" />
            <Array as="points">
              <mxPoint x="20" y="220" />
              <mxPoint x="20" y="-420" />
            </Array>
          </mxGeometry>
        </mxCell>
        <mxCell id="z8ZQqWnIRA7dxp7ImyTA-27" value="更新文章信息" style="text;html=1;align=center;verticalAlign=middle;resizable=0;points=[];autosize=1;" parent="1" vertex="1">
          <mxGeometry x="20" y="168.62" width="90" height="20" as="geometry" />
        </mxCell>
        <mxCell id="z8ZQqWnIRA7dxp7ImyTA-29" value="pipeline" style="rounded=0;whiteSpace=wrap;html=1;fillColor=#D4E1F5;strokeColor=#A9C4EB;" parent="1" vertex="1">
          <mxGeometry x="240" y="200" width="120" height="40" as="geometry" />
        </mxCell>
        <mxCell id="z8ZQqWnIRA7dxp7ImyTA-34" style="edgeStyle=orthogonalEdgeStyle;rounded=0;orthogonalLoop=1;jettySize=auto;html=1;entryX=0.5;entryY=1;entryDx=0;entryDy=0;fillColor=#FFB570;strokeColor=#FFB570;" parent="1" source="z8ZQqWnIRA7dxp7ImyTA-32" target="RX_EerJ2v2z5Nm2OWKS_-27" edge="1">
          <mxGeometry relative="1" as="geometry" />
        </mxCell>
        <mxCell id="z8ZQqWnIRA7dxp7ImyTA-37" style="edgeStyle=orthogonalEdgeStyle;rounded=0;orthogonalLoop=1;jettySize=auto;html=1;entryX=0;entryY=0.5;entryDx=0;entryDy=0;fillColor=#FFB570;strokeColor=#FFB570;" parent="1" source="z8ZQqWnIRA7dxp7ImyTA-32" target="z8ZQqWnIRA7dxp7ImyTA-36" edge="1">
          <mxGeometry relative="1" as="geometry" />
        </mxCell>
        <mxCell id="z8ZQqWnIRA7dxp7ImyTA-32" value="是否可重试" style="rhombus;whiteSpace=wrap;html=1;fillColor=#FFB570;strokeColor=#FFB570;" parent="1" vertex="1">
          <mxGeometry x="280" y="80" width="120" height="79" as="geometry" />
        </mxCell>
        <mxCell id="z8ZQqWnIRA7dxp7ImyTA-35" value="是" style="text;html=1;align=center;verticalAlign=middle;resizable=0;points=[];autosize=1;fillColor=#FFB570;strokeColor=#FFB570;" parent="1" vertex="1">
          <mxGeometry x="340" y="50" width="30" height="20" as="geometry" />
        </mxCell>
        <mxCell id="z8ZQqWnIRA7dxp7ImyTA-36" value="review_judge更新审核可见度为不通过" style="rounded=0;whiteSpace=wrap;html=1;fillColor=#D4E1F5;strokeColor=#A9C4EB;" parent="1" vertex="1">
          <mxGeometry x="440" y="99.5" width="120" height="40" as="geometry" />
        </mxCell>
        <mxCell id="z8ZQqWnIRA7dxp7ImyTA-38" value="" style="endArrow=none;dashed=1;html=1;dashPattern=1 3;strokeWidth=2;entryX=0.5;entryY=1;entryDx=0;entryDy=0;exitX=0.5;exitY=1;exitDx=0;exitDy=0;fillColor=#D4E1F5;strokeColor=#A9C4EB;" parent="1" source="z8ZQqWnIRA7dxp7ImyTA-19" target="z8ZQqWnIRA7dxp7ImyTA-36" edge="1">
          <mxGeometry width="50" height="50" relative="1" as="geometry">
            <mxPoint x="410" y="290" as="sourcePoint" />
            <mxPoint x="460" y="240" as="targetPoint" />
            <Array as="points">
              <mxPoint x="140" y="260" />
              <mxPoint x="500" y="260" />
            </Array>
          </mxGeometry>
        </mxCell>
        <mxCell id="z8ZQqWnIRA7dxp7ImyTA-49" style="edgeStyle=orthogonalEdgeStyle;rounded=0;orthogonalLoop=1;jettySize=auto;html=1;entryX=0.5;entryY=0;entryDx=0;entryDy=0;strokeColor=#B9E0A5;" parent="1" source="z8ZQqWnIRA7dxp7ImyTA-45" target="z8ZQqWnIRA7dxp7ImyTA-53" edge="1">
          <mxGeometry relative="1" as="geometry">
            <mxPoint x="500" y="-180" as="targetPoint" />
          </mxGeometry>
        </mxCell>
        <mxCell id="z8ZQqWnIRA7dxp7ImyTA-45" value="重新触发转码" style="rounded=0;whiteSpace=wrap;html=1;strokeColor=#B9E0A5;fillColor=#B9E0A5;" parent="1" vertex="1">
          <mxGeometry x="440" y="-260" width="120" height="40" as="geometry" />
        </mxCell>
        <mxCell id="z8ZQqWnIRA7dxp7ImyTA-50" style="edgeStyle=orthogonalEdgeStyle;rounded=0;orthogonalLoop=1;jettySize=auto;html=1;exitX=0.5;exitY=1;exitDx=0;exitDy=0;entryX=1;entryY=0.5;entryDx=0;entryDy=0;strokeColor=#B9E0A5;" parent="1" source="z8ZQqWnIRA7dxp7ImyTA-54" target="z8ZQqWnIRA7dxp7ImyTA-36" edge="1">
          <mxGeometry relative="1" as="geometry">
            <mxPoint x="500" y="-20" as="sourcePoint" />
          </mxGeometry>
        </mxCell>
        <mxCell id="z8ZQqWnIRA7dxp7ImyTA-51" value="是" style="text;html=1;align=center;verticalAlign=middle;resizable=0;points=[];autosize=1;strokeColor=#B9E0A5;fillColor=#B9E0A5;" parent="1" vertex="1">
          <mxGeometry x="660" y="-69.5" width="30" height="20" as="geometry" />
        </mxCell>
        <mxCell id="z8ZQqWnIRA7dxp7ImyTA-52" value="" style="endArrow=none;dashed=1;html=1;dashPattern=1 3;strokeWidth=2;entryX=0.25;entryY=1;entryDx=0;entryDy=0;exitX=1;exitY=0.5;exitDx=0;exitDy=0;strokeColor=#B9E0A5;fillColor=#B9E0A5;" parent="1" source="RX_EerJ2v2z5Nm2OWKS_-3" target="z8ZQqWnIRA7dxp7ImyTA-45" edge="1">
          <mxGeometry width="50" height="50" relative="1" as="geometry">
            <mxPoint x="160" y="-90" as="sourcePoint" />
            <mxPoint x="210" y="-140" as="targetPoint" />
            <Array as="points">
              <mxPoint x="280" y="-70" />
              <mxPoint x="280" y="-180" />
              <mxPoint x="470" y="-180" />
            </Array>
          </mxGeometry>
        </mxCell>
        <mxCell id="z8ZQqWnIRA7dxp7ImyTA-55" style="edgeStyle=orthogonalEdgeStyle;rounded=0;orthogonalLoop=1;jettySize=auto;html=1;entryX=0;entryY=0.5;entryDx=0;entryDy=0;fillColor=#B9E0A5;strokeColor=#B9E0A5;" parent="1" source="z8ZQqWnIRA7dxp7ImyTA-53" target="z8ZQqWnIRA7dxp7ImyTA-54" edge="1">
          <mxGeometry relative="1" as="geometry" />
        </mxCell>
        <mxCell id="z8ZQqWnIRA7dxp7ImyTA-63" style="edgeStyle=orthogonalEdgeStyle;rounded=0;orthogonalLoop=1;jettySize=auto;html=1;entryX=0.5;entryY=0;entryDx=0;entryDy=0;fillColor=#B9E0A5;strokeColor=#B9E0A5;" parent="1" source="z8ZQqWnIRA7dxp7ImyTA-53" target="z8ZQqWnIRA7dxp7ImyTA-62" edge="1">
          <mxGeometry relative="1" as="geometry" />
        </mxCell>
        <mxCell id="z8ZQqWnIRA7dxp7ImyTA-53" value="触发成功" style="rhombus;whiteSpace=wrap;html=1;strokeColor=#B9E0A5;fillColor=#B9E0A5;" parent="1" vertex="1">
          <mxGeometry x="440" y="-160" width="120" height="80" as="geometry" />
        </mxCell>
        <mxCell id="z8ZQqWnIRA7dxp7ImyTA-57" style="edgeStyle=orthogonalEdgeStyle;rounded=0;orthogonalLoop=1;jettySize=auto;html=1;entryX=0.5;entryY=0;entryDx=0;entryDy=0;exitX=0.5;exitY=0;exitDx=0;exitDy=0;strokeColor=#B9E0A5;fillColor=#B9E0A5;" parent="1" source="z8ZQqWnIRA7dxp7ImyTA-54" target="RX_EerJ2v2z5Nm2OWKS_-27" edge="1">
          <mxGeometry relative="1" as="geometry" />
        </mxCell>
        <mxCell id="z8ZQqWnIRA7dxp7ImyTA-54" value="是否到达&lt;br&gt;最大重试次数" style="rhombus;whiteSpace=wrap;html=1;strokeColor=#B9E0A5;fillColor=#B9E0A5;" parent="1" vertex="1">
          <mxGeometry x="600" y="-160" width="120" height="80" as="geometry" />
        </mxCell>
        <mxCell id="z8ZQqWnIRA7dxp7ImyTA-56" value="否" style="text;html=1;align=center;verticalAlign=middle;resizable=0;points=[];autosize=1;strokeColor=#B9E0A5;fillColor=#B9E0A5;" parent="1" vertex="1">
          <mxGeometry x="560" y="-160" width="30" height="20" as="geometry" />
        </mxCell>
        <mxCell id="z8ZQqWnIRA7dxp7ImyTA-58" value="否" style="text;html=1;align=center;verticalAlign=middle;resizable=0;points=[];autosize=1;strokeColor=#B9E0A5;fillColor=#B9E0A5;" parent="1" vertex="1">
          <mxGeometry x="660" y="-200" width="30" height="20" as="geometry" />
        </mxCell>
        <mxCell id="z8ZQqWnIRA7dxp7ImyTA-59" value="等待转码回调" style="rounded=0;whiteSpace=wrap;html=1;strokeColor=#FFCCCC;fillColor=#FFCCCC;" parent="1" vertex="1">
          <mxGeometry x="80" y="-170" width="120" height="40" as="geometry" />
        </mxCell>
        <mxCell id="z8ZQqWnIRA7dxp7ImyTA-61" value="是" style="text;html=1;align=center;verticalAlign=middle;resizable=0;points=[];autosize=1;strokeColor=#FFCCCC;fillColor=#FFCCCC;" parent="1" vertex="1">
          <mxGeometry x="140" y="-200" width="30" height="20" as="geometry" />
        </mxCell>
        <mxCell id="z8ZQqWnIRA7dxp7ImyTA-62" value="等待转码回调" style="rounded=0;whiteSpace=wrap;html=1;strokeColor=#B9E0A5;fillColor=#B9E0A5;" parent="1" vertex="1">
          <mxGeometry x="440" y="-50" width="120" height="40" as="geometry" />
        </mxCell>
        <mxCell id="z8ZQqWnIRA7dxp7ImyTA-64" value="是" style="text;html=1;align=center;verticalAlign=middle;resizable=0;points=[];autosize=1;strokeColor=#B9E0A5;fillColor=#B9E0A5;" parent="1" vertex="1">
          <mxGeometry x="510" y="-80" width="30" height="20" as="geometry" />
        </mxCell>
      </root>
    </mxGraphModel>
  </diagram>
</mxfile>
